#!OML:ASF F:\VICON\USERDATA\INSTALL\rory3\rory3.ASF
:FULLY-SPECIFIED
:DEGREES
36
root 0.5667199446813604 17.872433356461706 14.336491306424056 -3.8166714665906465 -0.7676868506351233 -0.8634351848187074
lfemur -8.225131445228204 -2.4059877178779963 -21.75608786175985
ltibia 21.85352380112697
lfoot -5.584889812205839 -6.019612746086343
ltoes -6.008097809395295
rfemur -14.625698216586718 1.3219515274534615 24.06614269771262
rtibia 62.854464959348924
rfoot -5.209807641641376 -7.079767448565454
rtoes 7.362581950791162
lowerback 11.295385656773616 0.8189098705282019 0.07415159844237351
upperback 0.09362468249713311 1.2458610818197315 1.128418886673653
thorax -5.999870043973237 0.6577023662423962 0.10913438338006665
lowerneck -16.649342351059314 -3.7273401758037323 -1.6409984287997847
upperneck 21.58675244520684 -5.303459320972229 2.3134834627633176
head 9.808573455727057 -2.338468755904159 0.3726777597491458
lclavicle -2.479878494217967e-15 -2.7239377124778475e-15
lhumerus -27.811639517956706 -0.053067246735873486 81.49654381199551
lradius 30.349775403833547
lwrist 9.964012588253565
lhand -29.78966574803195 20.893768021173067
lfingers nan
lthumb -2.7495185404930864 51.68213143662918
rclavicle -2.575572308882129e-15 -2.794025351684207e-15
rhumerus -28.87117661830859 -17.121446360273474 -80.49399981922868
rradius 27.213444978013285
rwrist 6.347604726052534
rhand -17.397657655218048 22.18056581577057
rfingers nan
rthumb 8.78232490267461 -7.793222455960321
37
root 0.6234915461844001 17.852567039597314 15.826818298001033 -4.450721858440596 0.41639187333806627 1.1428032594467354
lfemur -5.305208857279311 -3.096443551516973 -24.24066632259904
ltibia 23.031596690227076
lfoot -8.0115985334803 -5.309962945826539
ltoes -4.961162583847639
rfemur -17.377567969447774 -0.08410186540386189 20.895280210306918
rtibia 64.70231626916622
rfoot -6.39109187638601 -6.506806912256278
rtoes 6.708905028419711
lowerback 11.398696529840995 0.6821392419374646 -1.5926285268893536
upperback 0.2247579662941241 0.6474337313908173 0.8261272874244705
thorax -5.919837886060684 0.4216402301830693 1.4423372007819464
lowerneck -16.827569285849478 -3.6111627544095404 -1.6410071444229688
upperneck 21.353304087368244 -5.088094368833934 2.314800682068177
head 9.764807951731697 -2.256292899193537 0.4196467637488155
lclavicle -2.508350763926994e-15 -2.737423153692786e-15
lhumerus -26.096157936415718 -0.8980640042575012 81.12273601443601
lradius 30.976906333859596
lwrist 9.46971578675645
lhand -29.547801988255056 20.30157079843681
lfingers nan
lthumb -2.4599282457671996 51.10913349464317
rclavicle -2.595018406950187e-15 -2.7965597791938554e-15
rhumerus -30.032239657216756 -18.680385101344406 -81.1624114808908
rradius 25.84506945846039
rwrist 8.330087408637029
rhand -17.40177399987954 22.442815764624118
rfingers nan
rthumb 8.743646174082606 -7.5254786140410905
38
root 0.630607784438057 17.834505937736658 18.126553552035773 -4.042286886029768 1.2861620368929858 -0.47250634763291277
lfemur -3.25930059686399 -3.4745630525729054 -22.974309930063622
ltibia 24.187572656167884
lfoot -10.394169576903565 -4.295444166168098
ltoes -4.514768250568155
rfemur -19.257165908464525 -0.523148929644504 21.950991360255266
rtibia 64.18932177669103
rfoot -7.187236252323869 -6.0889404149476585
rtoes 5.943463444465879
lowerback 11.289233319505986 0.4004539221125788 -0.5342360360124487
upperback 0.1688341412522556 0.535890619455807 1.2155007008682244
thorax -5.972495457228552 0.30927466602057496 1.5466578800288366
lowerneck -16.988604509830186 -3.4809676103633125 -1.742039707078861
upperneck 21.295684960661124 -4.832038017836117 2.263498683886294
head 9.710007418269111 -2.1701400990269764 0.46523535510231734
lclavicle -2.5201556026203186e-15 -2.7400194242584155e-15
lhumerus -24.7784618977863 -1.5209122184428456 80.7575429691395
lradius 31.61895822704651
lwrist 9.079716609358227
lhand -29.466862365688385 20.056197271026118
lfingers nan
lthumb -2.306521367161178 50.98693063434641
rclavicle -2.6163318026850787e-15 -2.7974730526491242e-15
rhumerus -31.292165832865212 -19.88880296245817 -81.47955738635744
rradius 25.14695375576805
rwrist 9.049805592590625
rhand -17.418200947135038 22.74579007581594
rfingers nan
rthumb 8.737166452416746 -7.143065019926003
39
root 0.6284574249812249 17.81580748530366 19.26418713428683 -4.084825979030532 1.1816001204435653 -0.18620845091002236
lfemur -1.0263001198550272 -3.500884487582613 -23.20192228710511
ltibia 24.905481583559176
lfoot -11.780951742065774 -2.7551168290096912
ltoes -5.72204949988354
rfemur -21.04376710564049 -0.5478167638242626 21.165759130367707
rtibia 62.76267354532196
rfoot -7.530367784762844 -5.879024029403258
rtoes 5.591673293833532
lowerback 11.371042369655314 0.18143524609691172 -1.0939628175468705
upperback 0.13882989856883565 0.141171728980376 1.2905961265462764
thorax -6.060906453983976 0.18050290278954478 2.142140474992906
lowerneck -16.997064028147943 -3.332917235601425 -1.8310085296540877
upperneck 21.30934931018075 -4.544274387374241 2.104903319181394
head 9.673269083957031 -2.0694699164682793 0.4832264475563679
lclavicle -2.512721705423101e-15 -2.7344018004682356e-15
lhumerus -23.90923944041473 -1.8326298276492001 80.44727285572375
lradius 32.206504725979755
lwrist 7.818528651511514
lhand -29.230877544258068 19.226222589819354
lfingers nan
lthumb -2.2024186440547693 49.878163735185446
rclavicle -2.6249029617487666e-15 -2.8008437560467305e-15
rhumerus -32.560052294484315 -20.65358934123444 -81.46959731623103
rradius 25.14808917392906
rwrist 7.2053241133588575
rhand -17.459878146705137 22.915333821253004
rfingers nan
rthumb 8.76320710454796 -6.799510073044296
40
root 0.6289653873041031 17.81782188315037 19.62640286036139 -3.87158358515802 0.8638877437634163 -0.3637955440457805
lfemur 1.2927326678985 -3.3199088474679783 -22.833689544194684
ltibia 24.91562435153639
lfoot -12.185564831516128 -1.7310183028063229
ltoes -7.571262132666355
rfemur -22.68751563055326 -0.3203680261486639 21.155220874419427
rtibia 60.60830635368019
rfoot -7.61187176026052 -5.725541985665188
rtoes 4.59631387606964
lowerback 11.386195790419904 0.043154347662245185 -1.1181790276273664
upperback 0.11607795835323216 -0.017653635961199732 1.3622571368911611
thorax -6.1470325035535645 0.04748017678589128 2.4574594757269876
lowerneck -16.95856564441977 -3.194093137999748 -1.9043170431424399
upperneck 21.576958771629688 -4.268477753212116 1.8415738576519693
head 9.740960121143578 -1.9757823582759362 0.4468171601023452
lclavicle -2.532240965493684e-15 -2.744223253897925e-15
lhumerus -23.442415080498435 -1.9509923755249763 80.2382666256476
lradius 32.58077501711596
lwrist 6.894023111126601
lhand -29.22558445815281 18.92543383427353
lfingers nan
lthumb -2.172214309897831 49.64283248663117
rclavicle -2.639240747263068e-15 -2.8040593765958464e-15
rhumerus -33.882211178102935 -21.203941169428276 -81.20585436121912
rradius 25.63379797199191
rwrist 3.452090929180437
rhand -17.431407679447272 22.879020566286567
rfingers nan
rthumb 8.781212025741967 -6.918574091308252
